# xmcd
#
# Track frame offsets: 
#        150
#        30476
#        49256
#        67677
#        88463
#        102723
#        117645
#        131952
#        149178
#        159737
#        165109
#        187066
#        210056
#        226771
#        243254
#        253694
#        259701
#        278131
#        295948
#        304026
#        316885
#        331870
#        349239
#
# Disc length: 4688 seconds
#
# Revision: 0
# Processed by: cddbd v1.5.2PL0 Copyright (c) Steve Scherf et al.
# Submitted via: ExactAudioCopy v0.95b3
#
DISCID=59124e17
DTITLE=Bee Gees  - Odessa - Disc 3 (Sketches For Odessa)
DYEAR=1900
DGENRE=
TTITLE0=Odessa (Demo)
TTITLE1=You'll Never See My Face Again (Alternate Mix)
TTITLE2=Black Diamond (Demo)
TTITLE3=Marley Put Drive (Alternate Mix)
TTITLE4=Barbara Came To Stay
TTITLE5=Edison (Alternate Mix)
TTITLE6=Melody Fair (Demo)
TTITLE7=Melody Fair (Alternate Mix)
TTITLE8=Suddenly (Alternate Mix)
TTITLE9=Whisper Whisper, Part Two (Alternate Version)
TTITLE10=Lamplight (Demo)
TTITLE11=Lamplight (Alternate Version)
TTITLE12=Sound Of Love (Alternate Mix)
TTITLE13=Give Your Best (Alternate Mix)
TTITLE14=Seven Seas Symphony (Demo)
TTITLE15=With All Nations (International Anthem) (Vocal Version)
TTITLE16=I Laugh In Your Face (Alternate Mix)
TTITLE17=Never Say Never Again (Alternate Mix)
TTITLE18=First Of May (Demo)
TTITLE19=First Of May (Alternate Mix)
TTITLE20=Nobody's Someone
TTITLE21=Pity
TTITLE22=Odessa Promotional Spot
EXTD=
EXTT0=
EXTT1=
EXTT2=
EXTT3=
EXTT4=
EXTT5=
EXTT6=
EXTT7=
EXTT8=
EXTT9=
EXTT10=
EXTT11=
EXTT12=
EXTT13=
EXTT14=
EXTT15=
EXTT16=
EXTT17=
EXTT18=
EXTT19=
EXTT20=
EXTT21=
EXTT22=
PLAYORDER=
